<?xml version="1.0" encoding="UTF-8" standalone="no"?>
<!-- Created with Inkscape (http://www.inkscape.org/) -->

<svg
   xmlns:dc="http://purl.org/dc/elements/1.1/"
   xmlns:cc="http://creativecommons.org/ns#"
   xmlns:rdf="http://www.w3.org/1999/02/22-rdf-syntax-ns#"
   xmlns:svg="http://www.w3.org/2000/svg"
   xmlns="http://www.w3.org/2000/svg"
   xmlns:sodipodi="http://sodipodi.sourceforge.net/DTD/sodipodi-0.dtd"
   xmlns:inkscape="http://www.inkscape.org/namespaces/inkscape"
   width="64"
   height="64"
   viewBox="0 0 64.000001 64.000001"
   id="svg2"
   version="1.1"
   inkscape:version="0.91 r13725"
   sodipodi:docname="pause.svg">
  <defs
     id="defs4" />
  <sodipodi:namedview
     id="base"
     pagecolor="#ffffff"
     bordercolor="#666666"
     borderopacity="1.0"
     inkscape:pageopacity="0.0"
     inkscape:pageshadow="2"
     inkscape:zoom="10.24"
     inkscape:cx="36.773705"
     inkscape:cy="32.411964"
     inkscape:document-units="px"
     inkscape:current-layer="layer1"
     showgrid="false"
     units="px"
     inkscape:window-width="1920"
     inkscape:window-height="1021"
     inkscape:window-x="0"
     inkscape:window-y="0"
     inkscape:window-maximized="1" />
  <metadata
     id="metadata7">
    <rdf:RDF>
      <cc:Work
         rdf:about="">
        <dc:format>image/svg+xml</dc:format>
        <dc:type
           rdf:resource="http://purl.org/dc/dcmitype/StillImage" />
        <dc:title></dc:title>
      </cc:Work>
    </rdf:RDF>
  </metadata>
  <g
     inkscape:label="Layer 1"
     inkscape:groupmode="layer"
     id="layer1"
     transform="translate(0,-988.36216)">
    <path
       style="fill:#000000;fill-opacity:1"
       d="M 11.197266 5.1445312 C 10.089266 5.1445312 9.1972656 6.0365313 9.1972656 7.1445312 L 9.1972656 56.855469 C 9.1972656 57.963469 10.089266 58.855469 11.197266 58.855469 L 22.892578 58.855469 C 24.000578 58.855469 24.892578 57.963469 24.892578 56.855469 L 24.892578 7.1445312 C 24.892578 6.0365313 24.000578 5.1445312 22.892578 5.1445312 L 11.197266 5.1445312 z M 41.107422 5.1445312 C 39.999422 5.1445312 39.107422 6.0365313 39.107422 7.1445312 L 39.107422 56.855469 C 39.107422 57.963469 39.999422 58.855469 41.107422 58.855469 L 52.802734 58.855469 C 53.910734 58.855469 54.802734 57.963469 54.802734 56.855469 L 54.802734 7.1445312 C 54.802734 6.0365313 53.910734 5.1445312 52.802734 5.1445312 L 41.107422 5.1445312 z "
       transform="translate(0,988.36216)"
       id="rect4179" />
  </g>
</svg>
