<?xml version="1.0" encoding="UTF-8" standalone="no"?>
<!-- Created with Inkscape (http://www.inkscape.org/) -->

<svg
   xmlns:dc="http://purl.org/dc/elements/1.1/"
   xmlns:cc="http://creativecommons.org/ns#"
   xmlns:rdf="http://www.w3.org/1999/02/22-rdf-syntax-ns#"
   xmlns:svg="http://www.w3.org/2000/svg"
   xmlns="http://www.w3.org/2000/svg"
   xmlns:sodipodi="http://sodipodi.sourceforge.net/DTD/sodipodi-0.dtd"
   xmlns:inkscape="http://www.inkscape.org/namespaces/inkscape"
   width="32"
   height="32"
   viewBox="0 0 32 32.000001"
   id="svg2"
   version="1.1"
   inkscape:version="0.91 r13725"
   sodipodi:docname="open.svg">
  <defs
     id="defs4" />
  <sodipodi:namedview
     id="base"
     pagecolor="#ffffff"
     bordercolor="#666666"
     borderopacity="1.0"
     inkscape:pageopacity="0.0"
     inkscape:pageshadow="2"
     inkscape:zoom="15.839192"
     inkscape:cx="7.0032418"
     inkscape:cy="11.349301"
     inkscape:document-units="px"
     inkscape:current-layer="layer1"
     showgrid="false"
     units="px"
     inkscape:snap-global="false"
     inkscape:window-width="1920"
     inkscape:window-height="1021"
     inkscape:window-x="0"
     inkscape:window-y="0"
     inkscape:window-maximized="1" />
  <metadata
     id="metadata7">
    <rdf:RDF>
      <cc:Work
         rdf:about="">
        <dc:format>image/svg+xml</dc:format>
        <dc:type
           rdf:resource="http://purl.org/dc/dcmitype/StillImage" />
        <dc:title></dc:title>
      </cc:Work>
    </rdf:RDF>
  </metadata>
  <g
     inkscape:label="Layer 1"
     inkscape:groupmode="layer"
     id="layer1"
     transform="translate(0,-1020.3622)">
    <g
       id="g4237"
       transform="matrix(1.0896552,0,0,1.0896552,-1.4344839,-92.915307)">
      <path
         sodipodi:nodetypes="ssccsssssscsss"
         inkscape:connector-curvature="0"
         id="rect4190"
         d="m 3.6156348,1027.2077 c -0.2282102,0 -0.4119318,0.1837 -0.4119318,0.4119 l 0,1.4563 0,1.6735 0,14.3549 c 0,0.2282 0.1837216,0.4119 0.4119318,0.4119 l 20.0865022,0 c 0.22821,0 0.411932,-0.1837 0.411932,-0.4119 l 0,-16.0284 c 0,-0.2282 -0.183723,-0.4112 -0.411932,-0.412 l -15.4522696,0 0,-1.0443 c 0,-0.2282 -0.1837216,-0.4119 -0.4119318,-0.4119 z"
         style="opacity:1;fill:#4d4d4d;fill-opacity:0.96078431;stroke:none;stroke-width:2.79999995;stroke-miterlimit:4;stroke-dasharray:none" />
      <path
         sodipodi:nodetypes="sssssssss"
         inkscape:connector-curvature="0"
         id="rect4198"
         d="m 8.1832219,1031.733 20.3148381,0 c 0.164784,0 0.35256,0.1421 0.297444,0.2974 l -4.681282,13.1889 c -0.05512,0.1553 -0.13266,0.2974 -0.297444,0.2974 l -20.314838,0 c -0.1647839,0 -0.3525596,-0.1421 -0.2974439,-0.2974 l 4.6812819,-13.1889 c 0.055116,-0.1553 0.13266,-0.2974 0.2974439,-0.2974 z"
         style="opacity:1;fill:#afafaf;fill-opacity:1;stroke:none;stroke-width:2.79999995;stroke-miterlimit:4;stroke-dasharray:none" />
    </g>
  </g>
</svg>
